<svg width="18" height="18" viewBox="0 0 18 18" fill="none" xmlns="http://www.w3.org/2000/svg">
<path d="M14.6885 9.7051c-.0352-2.1406 1.7461-3.1641 1.8281-3.2227-.9961-1.457-2.543-1.6523-3.0918-1.6699-1.3066-.1406-2.5664.7793-3.2344.7793-.6855 0-1.7168-.7617-2.8359-.7441-1.4414.0176-2.7832 1.0586-3.5332 2.6602-1.5234 2.6777-.3867 6.5977 1.0742 8.7559.7031 1.0547 1.5469 2.2383 2.6719 2.1973 1.0898-.043 1.5-.7031 2.8242-.7031 1.3125 0 1.6875.7031 2.8418.6797 1.1777-.0176 1.8926-1.0664 2.5898-2.1289 1.1562-1.5469 1.6172-3.043 1.6289-3.1055-.0352-.0352-3.0859-1.1895-3.1172-4.6582z" fill="white"/>
<path d="M11.9297 2.2734C12.5273 1.5586 12.9414.5176 12.8242.4531c-.9629.043-2.1543.6445-2.8008 1.3594-.582.6445-1.0957 1.7461-.9609 2.7305 1.0156.0762 2.0508-.5195 2.8672-1.3086z" fill="white"/>
</svg>